Coordinates
nRows=7
nColumns=38

# SIMM Motion File Header:
name Coordinates
datacolumns 38
datarows 7
otherdata 1
range 0.13333000000000000000 0.13933000000000001000

Units are S.I. units (second, meters, Newtons, ...)
Angles are in degrees.

endheader
time	pelvis_tilt	pelvis_list	pelvis_rotation	pelvis_tx	pelvis_ty	pelvis_tz	hip_flexion_r	hip_adduction_r	hip_rotation_r	knee_angle_r	ankle_angle_r	subtalar_angle_r	mtp_angle_r	hip_flexion_l	hip_adduction_l	hip_rotation_l	knee_angle_l	ankle_angle_l	subtalar_angle_l	mtp_angle_l	lumbar_extension	lumbar_bending	lumbar_rotation	arm_flex_r	arm_add_r	arm_rot_r	elbow_flex_r	pro_sup_r	wrist_flex_r	wrist_dev_r	arm_flex_l	arm_add_l	arm_rot_l	elbow_flex_l	pro_sup_l	wrist_flex_l	wrist_dev_l
      0.13333000000000000000	     -6.12297806881672550000	     -0.53205980786517570000	     -0.18389128984533490000	      0.90813194632026994000	      1.08027493644786700000	     -0.32276857715473734000	     27.46197131803137400000	      5.34385377640683150000	      0.88149014183240981000	    -14.68199359787673300000	      8.83933667313112000000	      0.00000000000000000000	      0.00000000000000000000	     -5.12299975035240700000	      1.81526369853875800000	     -0.84514899641697683000	    -37.50953821504072000000	    -11.89569644244938500000	      0.00000000000000000000	      0.00000000000000000000	     -8.20629430781174380000	     -0.44311603768195185000	    -13.32422385436907900000	    -44.49753375256604900000	    -21.05640092678082800000	     -2.36067558424958080000	     98.15262216117537300000	    110.53439642811341000000	      0.00000000000000000000	      0.00000000000000000000	    -17.89783234401196000000	    -19.23456835153193000000	      6.14826157205808600000	    127.81109267140791000000	    100.60373449247578000000	      0.00000000000000000000	      0.00000000000000000000
      0.13433000000000000000	     -6.07368960338716950000	     -0.52960589127497781000	     -0.23759030926765218000	      0.90820707213053364000	      1.07986493208254060000	     -0.32267479635780760000	     27.40194754410045900000	      5.38145123827649650000	      0.90077410370072764000	    -14.79379134417272500000	      8.83740477077530250000	     -0.00000000000000000138	     -0.00000000000000000077	     -5.06987935685115330000	      1.82348730319672050000	     -0.86693165274728057000	    -37.85615053026155900000	    -11.93771247661707100000	      0.00000000000000000003	     -0.00000000000000000147	     -8.26465497779966540000	     -0.43756678040384595000	    -13.23651596761211400000	    -44.43805262765254600000	    -21.07723572232862400000	     -2.38589636393141060000	     98.17465734628089500000	    110.55981114146479000000	     -0.00000000000000000002	     -0.00000000000000000129	    -17.89717738891370000000	    -19.22143434822117300000	      6.17545870855508560000	    127.76373917535189000000	    100.58420940148500000000	      0.00000000000000000024	      0.00000000000000000069
      0.13533000000000001000	     -6.02281909383487870000	     -0.52799605912653225000	     -0.29097438109198104000	      0.90828134062485288000	      1.07944804596008810000	     -0.32258346058811233000	     27.34085668961864700000	      5.41950286953104850000	      0.91956930271158099000	    -14.91124999483876200000	      8.85627883170132970000	     -0.00000000000000001150	     -0.00000000000000000657	     -5.01754835932846270000	      1.83126353402070400000	     -0.88783205970724388000	    -38.20454414106826100000	    -11.97387452245768500000	     -0.00000000000000000044	     -0.00000000000000000174	     -8.32511484104758280000	     -0.43074470677440729000	    -13.14836516463421400000	    -44.37752925869722300000	    -21.09920123311887300000	     -2.41081466082266170000	     98.19743931185894300000	    110.58273910929159000000	     -0.00000000000000000001	     -0.00000000000000000571	    -17.89577075810325700000	    -19.20756150429974000000	      6.20212179571236980000	    127.71516879381383000000	    100.56599992886922000000	      0.00000000000000000133	      0.00000000000000000170
      0.13633000000000001000	     -5.97067887117304520000	     -0.52771330134206129000	     -0.34456417061837891000	      0.90835374327107543000	      1.07902463967888920000	     -0.32249387034258947000	     27.27967059000879900000	      5.45849485721202580000	      0.93727919625883060000	    -15.03540275443756600000	      8.86735395122682310000	     -0.00000000000000003114	     -0.00000000000000001550	     -4.96561359766207120000	      1.83805755931350470000	     -0.90855461463150078000	    -38.55480089555321400000	    -12.00407059785440300000	     -0.00000000000000000091	     -0.00000000000000000410	     -8.38743856497711700000	     -0.42213432354091829000	    -13.05919502084110700000	    -44.31576877037295500000	    -21.12243045721357100000	     -2.43543998819819760000	     98.22081705461234000000	    110.60314934332322000000	     -0.00000000000000000003	     -0.00000000000000001318	    -17.89346054694589200000	    -19.19274281362955000000	      6.22831088471130470000	    127.66513789378800000000	    100.54927518492791000000	      0.00000000000000000466	      0.00000000000000000287
      0.13733000000000001000	     -5.91712596313689950000	     -0.52873158429162792000	     -0.39821810928125639000	      0.90842435693139745000	      1.07859486353629670000	     -0.32240611352470366000	     27.21818892935406700000	      5.49840293994343820000	      0.95394528981548976000	    -15.16604534027656800000	      8.87623059477365750000	     -0.00000000000000004515	     -0.00000000000000002913	     -4.91425394958636640000	      1.84384191989985520000	     -0.92903797049436987000	    -38.90684995293299400000	    -12.02819195552533100000	     -0.00000000000000000111	     -0.00000000000000000351	     -8.45177412503224620000	     -0.41177293784513419000	    -12.96915026311023000000	    -44.25274342672469900000	    -21.14692226688990900000	     -2.45974019210642770000	     98.24479597551584200000	    110.62108167404209000000	      0.00000000000000000002	     -0.00000000000000001942	    -17.89028108981590400000	    -19.17701015884566100000	      6.25399340936536600000	    127.61369814347545000000	    100.53409059691383000000	      0.00000000000000000832	      0.00000000000000000398
      0.13833000000000001000	     -5.86211244254711250000	     -0.53114839009727222000	     -0.45184120902161290000	      0.90849302698466872000	      1.07815892062898370000	     -0.32232023748067762000	     27.15644476295933900000	      5.53929608031077600000	      0.96943558781101402000	    -15.30320204410455400000	      8.88200276557459740000	     -0.00000000000000005512	     -0.00000000000000004996	     -4.86350426688945970000	      1.84845386572040730000	     -0.94929504269576215000	    -39.26068514099377200000	    -12.04611858283198300000	     -0.00000000000000000132	     -0.00000000000000000160	     -8.51818881454334860000	     -0.39955550753393776000	    -12.87831310327786800000	    -44.18838450265742100000	    -21.17269855177114100000	     -2.48368729457387440000	     98.26934379518253600000	    110.63656985405930000000	      0.00000000000000000057	     -0.00000000000000002669	    -17.88623303659306500000	    -19.16035051344025000000	      6.27915689743959500000	    127.56084332423967000000	    100.52051710114708000000	      0.00000000000000001302	      0.00000000000000000647
      0.13933000000000001000	     -5.80558995257134920000	     -0.53503609177562284000	     -0.50533741962266832000	      0.90855963910714732000	      1.07771696851087940000	     -0.32223627285568629000	     27.09444468642999500000	      5.58123541386391860000	      0.98367928421510720000	    -15.44684220068508300000	      8.88552254530873140000	     -0.00000000000000006493	     -0.00000000000000007375	     -4.81340307227363520000	      1.85175648355350540000	     -0.96933024801629586000	    -39.61629292781244500000	    -12.05773673384550000000	     -0.00000000000000000122	     -0.00000000000000000000	     -8.58674345706186410000	     -0.38540801724259771000	    -12.78676998328391400000	    -44.12263320986371400000	    -21.19977557652477200000	     -2.50725165380891960000	     98.29443453626142000000	    110.64965471261206000000	      0.00000000000000000131	     -0.00000000000000003392	    -17.88133144528883300000	    -19.14275978339712500000	      6.30378747158429140000	    127.50658102757293000000	    100.50861307770570000000	      0.00000000000000001808	      0.00000000000000000841
